<svg width="125" height="56" viewBox="0 0 125 56" fill="none" xmlns="http://www.w3.org/2000/svg">
    <path d="M7.88863 27.312C6.25929 27.312 4.92463 27.0173 3.88463 26.428C2.84463 25.8213 1.98663 25.05 1.31063 24.114L2.89663 22.814C3.60729 23.698 4.35263 24.3567 5.13263 24.79C5.92996 25.2233 6.87463 25.44 7.96663 25.44C9.28396 25.44 10.2893 25.1367 10.9826 24.53C11.676 23.9233 12.0226 23.074 12.0226 21.982C12.0226 21.098 11.7713 20.4133 11.2686 19.928C10.766 19.4253 9.89063 19.07 8.64263 18.862L6.61463 18.524C5.73063 18.368 4.98529 18.134 4.37863 17.822C3.78929 17.51 3.31263 17.1373 2.94863 16.704C2.58463 16.2533 2.32463 15.768 2.16863 15.248C2.01263 14.7107 1.93463 14.156 1.93463 13.584C1.93463 11.92 2.48063 10.6633 3.57262 9.814C4.66463 8.96467 6.13796 8.54 7.99263 8.54C9.44863 8.54 10.6706 8.78267 11.6586 9.268C12.664 9.75333 13.47 10.438 14.0766 11.322L12.5426 12.648C12.04 11.9893 11.4333 11.452 10.7226 11.036C10.012 10.62 9.09329 10.412 7.96663 10.412C6.73596 10.412 5.79129 10.672 5.13263 11.192C4.47396 11.712 4.14463 12.492 4.14463 13.532C4.14463 14.3467 4.38729 15.014 4.87263 15.534C5.37529 16.0367 6.26796 16.4007 7.55063 16.626L9.50063 16.964C10.3846 17.12 11.13 17.354 11.7366 17.666C12.3433 17.978 12.8286 18.3507 13.1926 18.784C13.574 19.2173 13.8426 19.7027 13.9986 20.24C14.1546 20.7773 14.2326 21.3407 14.2326 21.93C14.2326 23.6113 13.678 24.9287 12.5686 25.882C11.4766 26.8353 9.91663 27.312 7.88863 27.312ZM23.7645 27.312C22.7938 27.312 21.9185 27.1473 21.1385 26.818C20.3758 26.4887 19.7171 26.0207 19.1625 25.414C18.6251 24.79 18.2091 24.0533 17.9145 23.204C17.6198 22.3373 17.4725 21.3753 17.4725 20.318C17.4725 19.2433 17.6198 18.2727 17.9145 17.406C18.2265 16.5393 18.6511 15.8027 19.1885 15.196C19.7258 14.572 20.3671 14.0953 21.1125 13.766C21.8751 13.4367 22.7158 13.272 23.6345 13.272C24.5358 13.272 25.3505 13.4367 26.0785 13.766C26.8238 14.0953 27.4565 14.5547 27.9765 15.144C28.4965 15.716 28.8951 16.4007 29.1725 17.198C29.4498 17.9953 29.5885 18.8707 29.5885 19.824V20.812H19.6565V21.436C19.6565 22.0253 19.7518 22.5713 19.9425 23.074C20.1331 23.5767 20.4018 24.01 20.7485 24.374C21.1125 24.738 21.5458 25.024 22.0485 25.232C22.5685 25.4227 23.1405 25.518 23.7645 25.518C24.6658 25.518 25.4458 25.31 26.1045 24.894C26.7631 24.478 27.2658 23.906 27.6125 23.178L29.1465 24.218C28.7478 25.1193 28.0805 25.8647 27.1445 26.454C26.2258 27.026 25.0991 27.312 23.7645 27.312ZM23.6345 14.988C23.0625 14.988 22.5338 15.092 22.0485 15.3C21.5631 15.508 21.1385 15.794 20.7745 16.158C20.4278 16.522 20.1505 16.9553 19.9425 17.458C19.7518 17.9433 19.6565 18.4807 19.6565 19.07V19.252H27.3525V18.966C27.3525 18.3767 27.2571 17.8393 27.0665 17.354C26.8931 16.8687 26.6418 16.4527 26.3125 16.106C26.0005 15.742 25.6105 15.4647 25.1425 15.274C24.6918 15.0833 24.1891 14.988 23.6345 14.988ZM39.5883 27.312C38.6176 27.312 37.751 27.1473 36.9883 26.818C36.243 26.4713 35.6103 25.9947 35.0903 25.388C34.5703 24.7813 34.1716 24.0447 33.8943 23.178C33.6343 22.3113 33.5043 21.3493 33.5043 20.292C33.5043 19.2347 33.643 18.2727 33.9203 17.406C34.1976 16.5393 34.5963 15.8027 35.1163 15.196C35.6363 14.572 36.269 14.0953 37.0143 13.766C37.7596 13.4367 38.609 13.272 39.5623 13.272C40.8623 13.272 41.9196 13.558 42.7343 14.13C43.549 14.702 44.147 15.4473 44.5283 16.366L42.8643 17.25C42.6216 16.5567 42.2143 16.0193 41.6423 15.638C41.0876 15.2567 40.3943 15.066 39.5623 15.066C38.9556 15.066 38.4096 15.17 37.9243 15.378C37.4563 15.5687 37.0576 15.846 36.7283 16.21C36.399 16.574 36.1476 17.0073 35.9743 17.51C35.8183 18.0127 35.7403 18.5587 35.7403 19.148V21.436C35.7403 22.0253 35.8183 22.5713 35.9743 23.074C36.1476 23.5767 36.399 24.01 36.7283 24.374C37.0576 24.738 37.465 25.024 37.9503 25.232C38.4356 25.4227 38.9903 25.518 39.6143 25.518C40.5156 25.518 41.261 25.31 41.8503 24.894C42.4396 24.478 42.9076 23.906 43.2543 23.178L44.7363 24.192C44.3376 25.0933 43.7136 25.8387 42.8643 26.428C42.0323 27.0173 40.9403 27.312 39.5883 27.312ZM57.8822 24.816H57.7782C57.6395 25.1453 57.4662 25.466 57.2582 25.778C57.0502 26.0727 56.7902 26.3327 56.4782 26.558C56.1835 26.7833 55.8282 26.9653 55.4122 27.104C54.9962 27.2427 54.5108 27.312 53.9562 27.312C52.5522 27.312 51.4255 26.87 50.5762 25.986C49.7268 25.0847 49.3022 23.8193 49.3022 22.19V13.584H51.3822V21.826C51.3822 23.0567 51.6508 23.9753 52.1882 24.582C52.7255 25.1713 53.5142 25.466 54.5542 25.466C54.9702 25.466 55.3775 25.414 55.7762 25.31C56.1748 25.206 56.5302 25.05 56.8422 24.842C57.1542 24.634 57.4055 24.374 57.5962 24.062C57.7868 23.7327 57.8822 23.3427 57.8822 22.892V13.584H59.9622V27H57.8822V24.816ZM64.502 25.232H68.428V15.352H64.502V13.584H70.508V16.964H70.638C70.9153 15.9067 71.4353 15.0833 72.198 14.494C72.978 13.8873 73.966 13.584 75.162 13.584H77.034V15.664H74.512C73.316 15.664 72.3453 16.0107 71.6 16.704C70.872 17.3973 70.508 18.3073 70.508 19.434V25.232H75.708V27H64.502V25.232ZM86.7218 10.62C86.1152 10.62 85.6905 10.4987 85.4478 10.256C85.2052 9.996 85.0838 9.67533 85.0838 9.294V8.878C85.0838 8.49667 85.2052 8.18467 85.4478 7.942C85.6905 7.682 86.1152 7.552 86.7218 7.552C87.3285 7.552 87.7532 7.682 87.9958 7.942C88.2385 8.18467 88.3598 8.49667 88.3598 8.878V9.294C88.3598 9.67533 88.2385 9.996 87.9958 10.256C87.7532 10.4987 87.3285 10.62 86.7218 10.62ZM80.8458 25.232H85.6818V15.352H80.8458V13.584H87.7618V25.232H92.2858V27H80.8458V25.232ZM102.13 27C101.107 27 100.353 26.714 99.8677 26.142C99.3997 25.57 99.1657 24.8333 99.1657 23.932V15.352H94.6937V13.584H98.0217C98.4724 13.584 98.7844 13.4973 98.9577 13.324C99.1484 13.1333 99.2437 12.8127 99.2437 12.362V8.852H101.246V13.584H107.356V15.352H101.246V25.232H107.356V27H102.13ZM121.412 13.584H123.492L116.836 29.938C116.68 30.3193 116.506 30.6487 116.316 30.926C116.125 31.2207 115.9 31.4547 115.64 31.628C115.38 31.8187 115.068 31.9573 114.704 32.044C114.34 32.148 113.906 32.2 113.404 32.2H111.428V30.432H114.548L116.056 26.74L110.648 13.584H112.78L115.042 19.2L117.044 24.296H117.148L119.15 19.2L121.412 13.584Z" fill="#C2BCD2"/>
    <path d="M1.45563 52V40.832H8.49563V42H2.79963V45.76H8.01562V46.928H2.79963V52H1.45563ZM14.4094 52.192C13.8334 52.192 13.3107 52.0907 12.8414 51.888C12.3827 51.6853 11.988 51.3973 11.6574 51.024C11.3374 50.64 11.092 50.1867 10.9214 49.664C10.7507 49.1307 10.6654 48.5333 10.6654 47.872C10.6654 47.2213 10.7507 46.6293 10.9214 46.096C11.092 45.5627 11.3374 45.1093 11.6574 44.736C11.988 44.352 12.3827 44.0587 12.8414 43.856C13.3107 43.6533 13.8334 43.552 14.4094 43.552C14.9854 43.552 15.5027 43.6533 15.9614 43.856C16.4307 44.0587 16.8254 44.352 17.1454 44.736C17.476 45.1093 17.7267 45.5627 17.8974 46.096C18.068 46.6293 18.1534 47.2213 18.1534 47.872C18.1534 48.5333 18.068 49.1307 17.8974 49.664C17.7267 50.1867 17.476 50.64 17.1454 51.024C16.8254 51.3973 16.4307 51.6853 15.9614 51.888C15.5027 52.0907 14.9854 52.192 14.4094 52.192ZM14.4094 51.088C15.124 51.088 15.7 50.8747 16.1374 50.448C16.5747 50.0213 16.7934 49.36 16.7934 48.464V47.28C16.7934 46.384 16.5747 45.7227 16.1374 45.296C15.7 44.8693 15.124 44.656 14.4094 44.656C13.6947 44.656 13.1187 44.8693 12.6814 45.296C12.244 45.7227 12.0254 46.384 12.0254 47.28V48.464C12.0254 49.36 12.244 50.0213 12.6814 50.448C13.1187 50.8747 13.6947 51.088 14.4094 51.088ZM20.4351 50.912H22.8511V44.832H20.4351V43.744H24.1311V45.824H24.2111C24.3818 45.1733 24.7018 44.6667 25.1711 44.304C25.6511 43.9307 26.2591 43.744 26.9951 43.744H28.1471V45.024H26.5951C25.8591 45.024 25.2618 45.2373 24.8031 45.664C24.3551 46.0907 24.1311 46.6507 24.1311 47.344V50.912H27.3311V52H20.4351V50.912ZM35.5489 50.656H35.4849C35.3995 50.8587 35.2929 51.056 35.1649 51.248C35.0369 51.4293 34.8769 51.5893 34.6849 51.728C34.5035 51.8667 34.2849 51.9787 34.0289 52.064C33.7729 52.1493 33.4742 52.192 33.1329 52.192C32.2689 52.192 31.5755 51.92 31.0529 51.376C30.5302 50.8213 30.2689 50.0427 30.2689 49.04V43.744H31.5489V48.816C31.5489 49.5733 31.7142 50.1387 32.0449 50.512C32.3755 50.8747 32.8609 51.056 33.5009 51.056C33.7569 51.056 34.0075 51.024 34.2529 50.96C34.4982 50.896 34.7169 50.8 34.9089 50.672C35.1009 50.544 35.2555 50.384 35.3729 50.192C35.4902 49.9893 35.5489 49.7493 35.5489 49.472V43.744H36.8289V52H35.5489V50.656ZM39.2546 52V43.744H40.4386V44.704H40.5026C40.6306 44.384 40.812 44.112 41.0466 43.888C41.2813 43.664 41.628 43.552 42.0866 43.552C42.5666 43.552 42.924 43.6747 43.1586 43.92C43.3933 44.1547 43.5373 44.464 43.5906 44.848H43.6386C43.788 44.4747 44.0013 44.1653 44.2786 43.92C44.556 43.6747 44.94 43.552 45.4306 43.552C46.1026 43.552 46.5506 43.7867 46.7746 44.256C47.0093 44.7253 47.1266 45.3973 47.1266 46.272V52H45.9426V46.48C45.9426 45.776 45.868 45.2907 45.7186 45.024C45.58 44.7467 45.3186 44.608 44.9346 44.608C44.5933 44.608 44.316 44.72 44.1026 44.944C43.8893 45.1573 43.7826 45.488 43.7826 45.936V52H42.5986V46.48C42.5986 45.776 42.524 45.2907 42.3746 45.024C42.236 44.7467 41.98 44.608 41.6066 44.608C41.2653 44.608 40.9826 44.72 40.7586 44.944C40.5453 45.1573 40.4386 45.488 40.4386 45.936V52H39.2546Z" fill="#C2BCD2"/>
</svg>
